<mxfile host="app.diagrams.net" modified="2024-02-09T18:54:30.623Z" agent="Mozilla/5.0 (Windows NT 10.0; Win64; x64) AppleWebKit/537.36 (KHTML, like Gecko) Chrome/121.0.0.0 Safari/537.36" etag="7X6NC0g5KXG_GqfF5Epc" version="23.1.2" type="device">
  <diagram id="ynhQZgXzWCskOLPG2BaT" name="1">
    <mxGraphModel dx="1032" dy="580" grid="1" gridSize="10" guides="1" tooltips="1" connect="1" arrows="1" fold="1" page="1" pageScale="1" pageWidth="827" pageHeight="1169" math="0" shadow="0">
      <root>
        <mxCell id="0" />
        <mxCell id="1" parent="0" />
        <mxCell id="XJuDXOCXOPp6mB0PCwsY-1" value="&lt;font style=&quot;border-color: var(--border-color);&quot;&gt;&lt;b style=&quot;border-color: var(--border-color); font-size: 16px;&quot;&gt;Sequence Diagram - Client Check Project Progress&lt;/b&gt;&lt;/font&gt;" style="text;html=1;strokeColor=none;fillColor=none;align=center;verticalAlign=middle;whiteSpace=wrap;rounded=0;" parent="1" vertex="1">
          <mxGeometry x="109" y="30" width="610" height="30" as="geometry" />
        </mxCell>
        <mxCell id="IRMNIbkQQZ1XdmFb4rOe-1" value="UI" style="shape=umlLifeline;perimeter=lifelinePerimeter;whiteSpace=wrap;html=1;container=0;dropTarget=0;collapsible=0;recursiveResize=0;outlineConnect=0;portConstraint=eastwest;newEdgeStyle={&quot;edgeStyle&quot;:&quot;elbowEdgeStyle&quot;,&quot;elbow&quot;:&quot;vertical&quot;,&quot;curved&quot;:0,&quot;rounded&quot;:0};" parent="1" vertex="1">
          <mxGeometry x="259" y="85" width="100" height="475" as="geometry" />
        </mxCell>
        <mxCell id="IRMNIbkQQZ1XdmFb4rOe-2" value="" style="html=1;points=[];perimeter=orthogonalPerimeter;outlineConnect=0;targetShapes=umlLifeline;portConstraint=eastwest;newEdgeStyle={&quot;edgeStyle&quot;:&quot;elbowEdgeStyle&quot;,&quot;elbow&quot;:&quot;vertical&quot;,&quot;curved&quot;:0,&quot;rounded&quot;:0};" parent="IRMNIbkQQZ1XdmFb4rOe-1" vertex="1">
          <mxGeometry x="45" y="80" width="10" height="350" as="geometry" />
        </mxCell>
        <mxCell id="IRMNIbkQQZ1XdmFb4rOe-3" value="" style="shape=umlDestroy;whiteSpace=wrap;html=1;strokeWidth=3;targetShapes=umlLifeline;" parent="IRMNIbkQQZ1XdmFb4rOe-1" vertex="1">
          <mxGeometry x="40" y="445" width="20" height="20" as="geometry" />
        </mxCell>
        <mxCell id="IRMNIbkQQZ1XdmFb4rOe-4" value="Database" style="shape=umlLifeline;perimeter=lifelinePerimeter;whiteSpace=wrap;html=1;container=0;dropTarget=0;collapsible=0;recursiveResize=0;outlineConnect=0;portConstraint=eastwest;newEdgeStyle={&quot;edgeStyle&quot;:&quot;elbowEdgeStyle&quot;,&quot;elbow&quot;:&quot;vertical&quot;,&quot;curved&quot;:0,&quot;rounded&quot;:0};" parent="1" vertex="1">
          <mxGeometry x="699" y="85" width="100" height="475" as="geometry" />
        </mxCell>
        <mxCell id="IRMNIbkQQZ1XdmFb4rOe-5" value="" style="html=1;points=[];perimeter=orthogonalPerimeter;outlineConnect=0;targetShapes=umlLifeline;portConstraint=eastwest;newEdgeStyle={&quot;edgeStyle&quot;:&quot;elbowEdgeStyle&quot;,&quot;elbow&quot;:&quot;vertical&quot;,&quot;curved&quot;:0,&quot;rounded&quot;:0};" parent="IRMNIbkQQZ1XdmFb4rOe-4" vertex="1">
          <mxGeometry x="45" y="80" width="10" height="350" as="geometry" />
        </mxCell>
        <mxCell id="IRMNIbkQQZ1XdmFb4rOe-6" value="" style="shape=umlDestroy;whiteSpace=wrap;html=1;strokeWidth=3;targetShapes=umlLifeline;" parent="IRMNIbkQQZ1XdmFb4rOe-4" vertex="1">
          <mxGeometry x="40" y="455" width="20" height="20" as="geometry" />
        </mxCell>
        <mxCell id="IRMNIbkQQZ1XdmFb4rOe-7" value="Show Progression Details" style="html=1;verticalAlign=bottom;endArrow=block;edgeStyle=elbowEdgeStyle;elbow=vertical;curved=0;rounded=0;" parent="1" edge="1">
          <mxGeometry relative="1" as="geometry">
            <mxPoint x="539" y="300.5" as="sourcePoint" />
            <Array as="points">
              <mxPoint x="545.75" y="300" />
              <mxPoint x="604.25" y="170" />
              <mxPoint x="584.25" y="200" />
            </Array>
            <mxPoint x="748.4999999999998" y="300" as="targetPoint" />
          </mxGeometry>
        </mxCell>
        <mxCell id="IRMNIbkQQZ1XdmFb4rOe-8" value="Progression Details are not available" style="html=1;verticalAlign=bottom;endArrow=open;dashed=1;endSize=8;edgeStyle=elbowEdgeStyle;elbow=vertical;curved=0;rounded=0;" parent="1" edge="1">
          <mxGeometry x="-0.0057" relative="1" as="geometry">
            <mxPoint x="533" y="445" as="targetPoint" />
            <Array as="points">
              <mxPoint x="563.25" y="445" />
              <mxPoint x="653.25" y="515" />
              <mxPoint x="633.25" y="505" />
              <mxPoint x="613.25" y="495" />
              <mxPoint x="593.25" y="485" />
              <mxPoint x="608.25" y="465" />
            </Array>
            <mxPoint as="offset" />
            <mxPoint x="748.5" y="445" as="sourcePoint" />
          </mxGeometry>
        </mxCell>
        <mxCell id="IRMNIbkQQZ1XdmFb4rOe-9" value="Progression Details are available" style="html=1;verticalAlign=bottom;endArrow=open;dashed=1;endSize=8;edgeStyle=elbowEdgeStyle;elbow=vertical;curved=0;rounded=0;" parent="1" edge="1">
          <mxGeometry x="-0.0436" relative="1" as="geometry">
            <mxPoint x="533.5" y="350" as="targetPoint" />
            <Array as="points">
              <mxPoint x="573.75" y="350" />
              <mxPoint x="613.75" y="390" />
              <mxPoint x="593.75" y="380" />
              <mxPoint x="603.75" y="380" />
            </Array>
            <mxPoint x="743.5" y="350" as="sourcePoint" />
            <mxPoint as="offset" />
          </mxGeometry>
        </mxCell>
        <mxCell id="IRMNIbkQQZ1XdmFb4rOe-10" value="" style="endArrow=none;dashed=1;html=1;rounded=0;" parent="1" edge="1">
          <mxGeometry width="50" height="50" relative="1" as="geometry">
            <mxPoint x="89" y="550" as="sourcePoint" />
            <mxPoint x="89.32999999999998" y="170" as="targetPoint" />
          </mxGeometry>
        </mxCell>
        <mxCell id="IRMNIbkQQZ1XdmFb4rOe-11" value="Client" style="shape=umlActor;verticalLabelPosition=bottom;verticalAlign=top;html=1;outlineConnect=0;" parent="1" vertex="1">
          <mxGeometry x="79" y="95" width="20" height="40" as="geometry" />
        </mxCell>
        <mxCell id="IRMNIbkQQZ1XdmFb4rOe-12" value="Alternative" style="shape=umlFrame;whiteSpace=wrap;html=1;pointerEvents=0;" parent="1" vertex="1">
          <mxGeometry x="39.5" y="320" width="749" height="160" as="geometry" />
        </mxCell>
        <mxCell id="IRMNIbkQQZ1XdmFb4rOe-13" value="" style="line;strokeWidth=1;fillColor=none;align=left;verticalAlign=middle;spacingTop=-1;spacingLeft=3;spacingRight=3;rotatable=0;labelPosition=right;points=[];portConstraint=eastwest;strokeColor=inherit;" parent="1" vertex="1">
          <mxGeometry x="39.5" y="396" width="749" height="8" as="geometry" />
        </mxCell>
        <mxCell id="IRMNIbkQQZ1XdmFb4rOe-14" value="Display All Progression Details" style="html=1;verticalAlign=bottom;endArrow=block;edgeStyle=elbowEdgeStyle;elbow=vertical;curved=0;rounded=0;dashed=1;exitX=0.025;exitY=0.735;exitDx=0;exitDy=0;exitPerimeter=0;" parent="1" edge="1">
          <mxGeometry x="0.1383" width="80" relative="1" as="geometry">
            <mxPoint x="303.75" y="411.9499999999998" as="sourcePoint" />
            <mxPoint x="88.5" y="390" as="targetPoint" />
            <Array as="points">
              <mxPoint x="206" y="390" />
            </Array>
            <mxPoint as="offset" />
          </mxGeometry>
        </mxCell>
        <mxCell id="IRMNIbkQQZ1XdmFb4rOe-15" value="Display Nothing" style="html=1;verticalAlign=bottom;endArrow=block;edgeStyle=elbowEdgeStyle;elbow=vertical;curved=0;rounded=0;dashed=1;" parent="1" edge="1">
          <mxGeometry width="80" relative="1" as="geometry">
            <mxPoint x="298.5" y="470.33333333333326" as="sourcePoint" />
            <mxPoint x="83.5" y="470" as="targetPoint" />
          </mxGeometry>
        </mxCell>
        <mxCell id="IRMNIbkQQZ1XdmFb4rOe-16" value="&lt;span style=&quot;font-size: 10px;&quot;&gt;&lt;b&gt;[if Progression Details available]&lt;/b&gt;&lt;/span&gt;" style="text;html=1;strokeColor=none;fillColor=none;align=left;verticalAlign=middle;whiteSpace=wrap;rounded=0;" parent="1" vertex="1">
          <mxGeometry x="99" y="330" width="161" height="10" as="geometry" />
        </mxCell>
        <mxCell id="IRMNIbkQQZ1XdmFb4rOe-17" value="&lt;font style=&quot;font-size: 10px;&quot;&gt;&lt;b&gt;[else]&lt;/b&gt;&lt;/font&gt;" style="text;html=1;strokeColor=none;fillColor=none;align=left;verticalAlign=middle;whiteSpace=wrap;rounded=0;" parent="1" vertex="1">
          <mxGeometry x="48.5" y="416" width="80" height="10" as="geometry" />
        </mxCell>
        <mxCell id="IRMNIbkQQZ1XdmFb4rOe-18" value="Click Check&amp;nbsp; Progress" style="html=1;verticalAlign=bottom;endArrow=blockThin;edgeStyle=elbowEdgeStyle;elbow=vertical;curved=0;rounded=0;endFill=1;" parent="1" target="IRMNIbkQQZ1XdmFb4rOe-2" edge="1">
          <mxGeometry relative="1" as="geometry">
            <mxPoint x="286.5" y="215" as="targetPoint" />
            <Array as="points">
              <mxPoint x="228.5" y="215" />
              <mxPoint x="196" y="235" />
            </Array>
            <mxPoint x="89" y="215" as="sourcePoint" />
            <mxPoint as="offset" />
          </mxGeometry>
        </mxCell>
        <mxCell id="IRMNIbkQQZ1XdmFb4rOe-20" value="System" style="shape=umlLifeline;perimeter=lifelinePerimeter;whiteSpace=wrap;html=1;container=0;dropTarget=0;collapsible=0;recursiveResize=0;outlineConnect=0;portConstraint=eastwest;newEdgeStyle={&quot;edgeStyle&quot;:&quot;elbowEdgeStyle&quot;,&quot;elbow&quot;:&quot;vertical&quot;,&quot;curved&quot;:0,&quot;rounded&quot;:0};" parent="1" vertex="1">
          <mxGeometry x="459" y="85" width="140" height="475" as="geometry" />
        </mxCell>
        <mxCell id="IRMNIbkQQZ1XdmFb4rOe-21" value="" style="html=1;points=[];perimeter=orthogonalPerimeter;outlineConnect=0;targetShapes=umlLifeline;portConstraint=eastwest;newEdgeStyle={&quot;edgeStyle&quot;:&quot;elbowEdgeStyle&quot;,&quot;elbow&quot;:&quot;vertical&quot;,&quot;curved&quot;:0,&quot;rounded&quot;:0};" parent="IRMNIbkQQZ1XdmFb4rOe-20" vertex="1">
          <mxGeometry x="65" y="80" width="10" height="350" as="geometry" />
        </mxCell>
        <mxCell id="IRMNIbkQQZ1XdmFb4rOe-22" value="" style="shape=umlDestroy;whiteSpace=wrap;html=1;strokeWidth=3;targetShapes=umlLifeline;" parent="IRMNIbkQQZ1XdmFb4rOe-20" vertex="1">
          <mxGeometry x="60" y="455" width="20" height="20" as="geometry" />
        </mxCell>
        <mxCell id="IRMNIbkQQZ1XdmFb4rOe-23" value="Show the Progression Details" style="html=1;verticalAlign=bottom;endArrow=block;edgeStyle=elbowEdgeStyle;elbow=vertical;curved=0;rounded=0;" parent="1" edge="1">
          <mxGeometry relative="1" as="geometry">
            <mxPoint x="314.25" y="260" as="sourcePoint" />
            <Array as="points">
              <mxPoint x="416.75" y="260" />
              <mxPoint x="376.75" y="250" />
              <mxPoint x="446.75" y="120" />
              <mxPoint x="414.25" y="110" />
              <mxPoint x="394.25" y="140" />
            </Array>
            <mxPoint x="528.4999999999998" y="260" as="targetPoint" />
          </mxGeometry>
        </mxCell>
        <mxCell id="IRMNIbkQQZ1XdmFb4rOe-24" value="Progression Details" style="html=1;verticalAlign=bottom;endArrow=open;dashed=1;endSize=8;edgeStyle=elbowEdgeStyle;elbow=vertical;curved=0;rounded=0;" parent="1" edge="1">
          <mxGeometry relative="1" as="geometry">
            <mxPoint x="313.75" y="370" as="targetPoint" />
            <Array as="points">
              <mxPoint x="373.75" y="370" />
              <mxPoint x="413.75" y="410" />
              <mxPoint x="393.75" y="400" />
              <mxPoint x="403.75" y="400" />
            </Array>
            <mxPoint x="527.9999999999998" y="370" as="sourcePoint" />
          </mxGeometry>
        </mxCell>
        <mxCell id="IRMNIbkQQZ1XdmFb4rOe-25" value="No Progression Details" style="html=1;verticalAlign=bottom;endArrow=open;dashed=1;endSize=8;edgeStyle=elbowEdgeStyle;elbow=vertical;curved=0;rounded=0;" parent="1" edge="1">
          <mxGeometry relative="1" as="geometry">
            <mxPoint x="311.81" y="460" as="targetPoint" />
            <Array as="points">
              <mxPoint x="371.81" y="460" />
              <mxPoint x="411.81" y="500" />
              <mxPoint x="391.81" y="490" />
              <mxPoint x="401.81" y="490" />
            </Array>
            <mxPoint x="525.19" y="460" as="sourcePoint" />
          </mxGeometry>
        </mxCell>
        <mxCell id="6LOvPaKIlXQGkeTUKsTR-1" value="&lt;font style=&quot;border-color: var(--border-color);&quot;&gt;&lt;b style=&quot;border-color: var(--border-color); font-size: 16px;&quot;&gt;Sequence Diagram - Client Send Feedbacks&lt;/b&gt;&lt;/font&gt;" style="text;html=1;strokeColor=none;fillColor=none;align=center;verticalAlign=middle;whiteSpace=wrap;rounded=0;" parent="1" vertex="1">
          <mxGeometry x="109" y="610" width="610" height="30" as="geometry" />
        </mxCell>
        <mxCell id="6LOvPaKIlXQGkeTUKsTR-2" value="UI" style="shape=umlLifeline;perimeter=lifelinePerimeter;whiteSpace=wrap;html=1;container=0;dropTarget=0;collapsible=0;recursiveResize=0;outlineConnect=0;portConstraint=eastwest;newEdgeStyle={&quot;edgeStyle&quot;:&quot;elbowEdgeStyle&quot;,&quot;elbow&quot;:&quot;vertical&quot;,&quot;curved&quot;:0,&quot;rounded&quot;:0};" parent="1" vertex="1">
          <mxGeometry x="259" y="665" width="100" height="475" as="geometry" />
        </mxCell>
        <mxCell id="6LOvPaKIlXQGkeTUKsTR-3" value="" style="html=1;points=[];perimeter=orthogonalPerimeter;outlineConnect=0;targetShapes=umlLifeline;portConstraint=eastwest;newEdgeStyle={&quot;edgeStyle&quot;:&quot;elbowEdgeStyle&quot;,&quot;elbow&quot;:&quot;vertical&quot;,&quot;curved&quot;:0,&quot;rounded&quot;:0};" parent="6LOvPaKIlXQGkeTUKsTR-2" vertex="1">
          <mxGeometry x="45" y="80" width="10" height="350" as="geometry" />
        </mxCell>
        <mxCell id="6LOvPaKIlXQGkeTUKsTR-4" value="" style="shape=umlDestroy;whiteSpace=wrap;html=1;strokeWidth=3;targetShapes=umlLifeline;" parent="6LOvPaKIlXQGkeTUKsTR-2" vertex="1">
          <mxGeometry x="40" y="445" width="20" height="20" as="geometry" />
        </mxCell>
        <mxCell id="6LOvPaKIlXQGkeTUKsTR-5" value="Database" style="shape=umlLifeline;perimeter=lifelinePerimeter;whiteSpace=wrap;html=1;container=0;dropTarget=0;collapsible=0;recursiveResize=0;outlineConnect=0;portConstraint=eastwest;newEdgeStyle={&quot;edgeStyle&quot;:&quot;elbowEdgeStyle&quot;,&quot;elbow&quot;:&quot;vertical&quot;,&quot;curved&quot;:0,&quot;rounded&quot;:0};" parent="1" vertex="1">
          <mxGeometry x="699" y="665" width="100" height="475" as="geometry" />
        </mxCell>
        <mxCell id="6LOvPaKIlXQGkeTUKsTR-6" value="" style="html=1;points=[];perimeter=orthogonalPerimeter;outlineConnect=0;targetShapes=umlLifeline;portConstraint=eastwest;newEdgeStyle={&quot;edgeStyle&quot;:&quot;elbowEdgeStyle&quot;,&quot;elbow&quot;:&quot;vertical&quot;,&quot;curved&quot;:0,&quot;rounded&quot;:0};" parent="6LOvPaKIlXQGkeTUKsTR-5" vertex="1">
          <mxGeometry x="45" y="80" width="10" height="350" as="geometry" />
        </mxCell>
        <mxCell id="6LOvPaKIlXQGkeTUKsTR-7" value="" style="shape=umlDestroy;whiteSpace=wrap;html=1;strokeWidth=3;targetShapes=umlLifeline;" parent="6LOvPaKIlXQGkeTUKsTR-5" vertex="1">
          <mxGeometry x="40" y="455" width="20" height="20" as="geometry" />
        </mxCell>
        <mxCell id="6LOvPaKIlXQGkeTUKsTR-8" value="Saved&amp;nbsp; and Validated Feedback Details&amp;nbsp;" style="html=1;verticalAlign=bottom;endArrow=block;edgeStyle=elbowEdgeStyle;elbow=vertical;curved=0;rounded=0;" parent="1" target="6LOvPaKIlXQGkeTUKsTR-6" edge="1">
          <mxGeometry relative="1" as="geometry">
            <mxPoint x="530" y="900.5" as="sourcePoint" />
            <Array as="points">
              <mxPoint x="536.75" y="900" />
              <mxPoint x="595.25" y="770" />
              <mxPoint x="575.25" y="800" />
            </Array>
            <mxPoint x="739.4999999999998" y="900" as="targetPoint" />
          </mxGeometry>
        </mxCell>
        <mxCell id="6LOvPaKIlXQGkeTUKsTR-9" value="Feedback Form details &lt;br&gt;may not saved Successfully" style="html=1;verticalAlign=bottom;endArrow=open;dashed=1;endSize=8;edgeStyle=elbowEdgeStyle;elbow=vertical;curved=0;rounded=0;" parent="1" edge="1">
          <mxGeometry x="-0.0057" relative="1" as="geometry">
            <mxPoint x="533" y="1020" as="targetPoint" />
            <Array as="points">
              <mxPoint x="563.25" y="1020" />
              <mxPoint x="653.25" y="1090" />
              <mxPoint x="633.25" y="1080" />
              <mxPoint x="613.25" y="1070" />
              <mxPoint x="593.25" y="1060" />
              <mxPoint x="608.25" y="1040" />
            </Array>
            <mxPoint as="offset" />
            <mxPoint x="748.5" y="1020" as="sourcePoint" />
          </mxGeometry>
        </mxCell>
        <mxCell id="6LOvPaKIlXQGkeTUKsTR-10" value="Feedback Form details saved Successfully" style="html=1;verticalAlign=bottom;endArrow=open;dashed=1;endSize=8;edgeStyle=elbowEdgeStyle;elbow=vertical;curved=0;rounded=0;" parent="1" edge="1">
          <mxGeometry x="-0.0436" relative="1" as="geometry">
            <mxPoint x="533.5" y="940" as="targetPoint" />
            <Array as="points">
              <mxPoint x="573.75" y="940" />
              <mxPoint x="613.75" y="980" />
              <mxPoint x="593.75" y="970" />
              <mxPoint x="603.75" y="970" />
            </Array>
            <mxPoint x="743.5" y="940" as="sourcePoint" />
            <mxPoint as="offset" />
          </mxGeometry>
        </mxCell>
        <mxCell id="6LOvPaKIlXQGkeTUKsTR-11" value="" style="endArrow=none;dashed=1;html=1;rounded=0;" parent="1" edge="1">
          <mxGeometry width="50" height="50" relative="1" as="geometry">
            <mxPoint x="89" y="1130" as="sourcePoint" />
            <mxPoint x="89.32999999999998" y="750" as="targetPoint" />
          </mxGeometry>
        </mxCell>
        <mxCell id="6LOvPaKIlXQGkeTUKsTR-12" value="Client" style="shape=umlActor;verticalLabelPosition=bottom;verticalAlign=top;html=1;outlineConnect=0;" parent="1" vertex="1">
          <mxGeometry x="79" y="675" width="20" height="40" as="geometry" />
        </mxCell>
        <mxCell id="6LOvPaKIlXQGkeTUKsTR-13" value="Alternative" style="shape=umlFrame;whiteSpace=wrap;html=1;pointerEvents=0;" parent="1" vertex="1">
          <mxGeometry x="39.5" y="910" width="740.5" height="170" as="geometry" />
        </mxCell>
        <mxCell id="6LOvPaKIlXQGkeTUKsTR-14" value="" style="line;strokeWidth=1;fillColor=none;align=left;verticalAlign=middle;spacingTop=-1;spacingLeft=3;spacingRight=3;rotatable=0;labelPosition=right;points=[];portConstraint=eastwest;strokeColor=inherit;" parent="1" vertex="1">
          <mxGeometry x="39.5" y="980" width="740.5" height="8" as="geometry" />
        </mxCell>
        <mxCell id="6LOvPaKIlXQGkeTUKsTR-15" value="Display Feedback send Successfully" style="html=1;verticalAlign=bottom;endArrow=block;edgeStyle=elbowEdgeStyle;elbow=vertical;curved=0;rounded=0;dashed=1;exitX=0.025;exitY=0.735;exitDx=0;exitDy=0;exitPerimeter=0;" parent="1" edge="1">
          <mxGeometry x="0.1266" width="80" relative="1" as="geometry">
            <mxPoint x="303.75" y="991.9499999999998" as="sourcePoint" />
            <mxPoint x="88.5" y="970" as="targetPoint" />
            <Array as="points">
              <mxPoint x="206" y="970" />
            </Array>
            <mxPoint x="-1" as="offset" />
          </mxGeometry>
        </mxCell>
        <mxCell id="6LOvPaKIlXQGkeTUKsTR-16" value="Display&amp;nbsp; Error Message" style="html=1;verticalAlign=bottom;endArrow=block;edgeStyle=elbowEdgeStyle;elbow=vertical;curved=0;rounded=0;dashed=1;" parent="1" edge="1">
          <mxGeometry width="80" relative="1" as="geometry">
            <mxPoint x="298.5" y="1050.3333333333333" as="sourcePoint" />
            <mxPoint x="83.5" y="1050" as="targetPoint" />
          </mxGeometry>
        </mxCell>
        <mxCell id="6LOvPaKIlXQGkeTUKsTR-17" value="&lt;span style=&quot;font-size: 10px;&quot;&gt;&lt;b&gt;[if feedback send]&lt;/b&gt;&lt;/span&gt;" style="text;html=1;strokeColor=none;fillColor=none;align=left;verticalAlign=middle;whiteSpace=wrap;rounded=0;" parent="1" vertex="1">
          <mxGeometry x="109" y="910" width="140" height="10" as="geometry" />
        </mxCell>
        <mxCell id="6LOvPaKIlXQGkeTUKsTR-18" value="&lt;font style=&quot;font-size: 10px;&quot;&gt;&lt;b&gt;[else]&lt;/b&gt;&lt;/font&gt;" style="text;html=1;strokeColor=none;fillColor=none;align=left;verticalAlign=middle;whiteSpace=wrap;rounded=0;" parent="1" vertex="1">
          <mxGeometry x="48.5" y="996" width="80" height="10" as="geometry" />
        </mxCell>
        <mxCell id="6LOvPaKIlXQGkeTUKsTR-20" value="System" style="shape=umlLifeline;perimeter=lifelinePerimeter;whiteSpace=wrap;html=1;container=0;dropTarget=0;collapsible=0;recursiveResize=0;outlineConnect=0;portConstraint=eastwest;newEdgeStyle={&quot;edgeStyle&quot;:&quot;elbowEdgeStyle&quot;,&quot;elbow&quot;:&quot;vertical&quot;,&quot;curved&quot;:0,&quot;rounded&quot;:0};" parent="1" vertex="1">
          <mxGeometry x="459" y="665" width="140" height="475" as="geometry" />
        </mxCell>
        <mxCell id="6LOvPaKIlXQGkeTUKsTR-21" value="" style="html=1;points=[];perimeter=orthogonalPerimeter;outlineConnect=0;targetShapes=umlLifeline;portConstraint=eastwest;newEdgeStyle={&quot;edgeStyle&quot;:&quot;elbowEdgeStyle&quot;,&quot;elbow&quot;:&quot;vertical&quot;,&quot;curved&quot;:0,&quot;rounded&quot;:0};" parent="6LOvPaKIlXQGkeTUKsTR-20" vertex="1">
          <mxGeometry x="65" y="80" width="10" height="350" as="geometry" />
        </mxCell>
        <mxCell id="6LOvPaKIlXQGkeTUKsTR-22" value="" style="shape=umlDestroy;whiteSpace=wrap;html=1;strokeWidth=3;targetShapes=umlLifeline;" parent="6LOvPaKIlXQGkeTUKsTR-20" vertex="1">
          <mxGeometry x="60" y="455" width="20" height="20" as="geometry" />
        </mxCell>
        <mxCell id="6LOvPaKIlXQGkeTUKsTR-23" value="Entered Feedback Deitails" style="html=1;verticalAlign=bottom;endArrow=block;edgeStyle=elbowEdgeStyle;elbow=vertical;curved=0;rounded=0;" parent="1" edge="1">
          <mxGeometry relative="1" as="geometry">
            <mxPoint x="314.25" y="880" as="sourcePoint" />
            <Array as="points">
              <mxPoint x="416.75" y="880" />
              <mxPoint x="376.75" y="870" />
              <mxPoint x="446.75" y="740" />
              <mxPoint x="414.25" y="730" />
              <mxPoint x="394.25" y="760" />
            </Array>
            <mxPoint x="528.4999999999998" y="880" as="targetPoint" />
          </mxGeometry>
        </mxCell>
        <mxCell id="6LOvPaKIlXQGkeTUKsTR-24" value="Feedback Details saved" style="html=1;verticalAlign=bottom;endArrow=open;dashed=1;endSize=8;edgeStyle=elbowEdgeStyle;elbow=vertical;curved=0;rounded=0;" parent="1" edge="1">
          <mxGeometry relative="1" as="geometry">
            <mxPoint x="313.75" y="960" as="targetPoint" />
            <Array as="points">
              <mxPoint x="373.75" y="960" />
              <mxPoint x="413.75" y="1000" />
              <mxPoint x="393.75" y="990" />
              <mxPoint x="403.75" y="990" />
            </Array>
            <mxPoint x="527.9999999999998" y="960" as="sourcePoint" />
          </mxGeometry>
        </mxCell>
        <mxCell id="6LOvPaKIlXQGkeTUKsTR-25" value="Feedback Details not Saved&amp;nbsp;" style="html=1;verticalAlign=bottom;endArrow=open;dashed=1;endSize=8;edgeStyle=elbowEdgeStyle;elbow=vertical;curved=0;rounded=0;" parent="1" edge="1">
          <mxGeometry relative="1" as="geometry">
            <mxPoint x="311.81" y="1040" as="targetPoint" />
            <Array as="points">
              <mxPoint x="371.81" y="1040" />
              <mxPoint x="411.81" y="1080" />
              <mxPoint x="391.81" y="1070" />
              <mxPoint x="401.81" y="1070" />
            </Array>
            <mxPoint x="525.19" y="1040" as="sourcePoint" />
          </mxGeometry>
        </mxCell>
        <mxCell id="e0VSOoY0GaZt5QL2afvq-3" value="Fill the Feedback Details&amp;nbsp;" style="html=1;verticalAlign=bottom;endArrow=block;edgeStyle=elbowEdgeStyle;elbow=vertical;curved=0;rounded=0;" parent="1" edge="1">
          <mxGeometry relative="1" as="geometry">
            <mxPoint x="90" y="840" as="sourcePoint" />
            <Array as="points">
              <mxPoint x="192.5" y="840" />
              <mxPoint x="152.5" y="830" />
              <mxPoint x="222.5" y="700" />
              <mxPoint x="190" y="690" />
              <mxPoint x="170" y="720" />
            </Array>
            <mxPoint x="304.2499999999998" y="840" as="targetPoint" />
          </mxGeometry>
        </mxCell>
        <mxCell id="e0VSOoY0GaZt5QL2afvq-4" value="Click Submit Button" style="html=1;verticalAlign=bottom;endArrow=block;edgeStyle=elbowEdgeStyle;elbow=vertical;curved=0;rounded=0;" parent="1" edge="1">
          <mxGeometry relative="1" as="geometry">
            <mxPoint x="90" y="860" as="sourcePoint" />
            <Array as="points">
              <mxPoint x="192.5" y="860" />
              <mxPoint x="152.5" y="850" />
              <mxPoint x="222.5" y="720" />
              <mxPoint x="190" y="710" />
              <mxPoint x="170" y="740" />
            </Array>
            <mxPoint x="304.2499999999998" y="860" as="targetPoint" />
          </mxGeometry>
        </mxCell>
      </root>
    </mxGraphModel>
  </diagram>
</mxfile>
